<svg xmlns="http://www.w3.org/2000/svg" width="1443" height="314.945" viewBox="0 0 1443 314.945">
  <g id="screenshot" transform="translate(0 0.943)">
    <path id="Path_679" data-name="Path 679" d="M288.3,311.222H264.89V314H288.3Z" fill="#fff"/>
    <path id="Path_779" data-name="Path 779" d="M1443,308H0v6H1443Z" fill="#e3e7f3"/>
    <g id="Group_46" data-name="Group 46" transform="translate(-950.724 -0.943)">
      <path id="Path_760" data-name="Path 760" d="M1212.48,309.944s.05-30.759-33.62-15.8c0,0-7.4-26.479-26.79-25.227s-21.27,26.31-21.27,26.31-26.55-13.5-40.8,13.881Z" fill="#e3e7f3"/>
      <path id="Path_761" data-name="Path 761" d="M1155.76,308.852l-.83-.114a39.831,39.831,0,0,0-6.47-27.621l.67-.507A40.863,40.863,0,0,1,1155.76,308.852Z" fill="#6eab9c"/>
      <path id="Path_762" data-name="Path 762" d="M1156.06,299.022l-.67-.493c.07-.11,7.95-10.944,9.29-17.755l.82.16C1164.13,287.932,1156.39,298.575,1156.06,299.022Z" fill="#6eab9c"/>
      <path id="Path_763" data-name="Path 763" d="M1155.69,304.7c-6.15-.384-11.59-7.665-11.82-7.975l.67-.494c.06.074,5.44,7.277,11.2,7.638Z" fill="#6eab9c"/>
      <path id="Path_764" data-name="Path 764" d="M1175.41,308.742l1.12-.8c.11-.077,10.77-7.632,22.18-8.167l.04.832c-8.94.415-17.42,5.253-20.51,7.2l11.07-.384.03.832Z" fill="#6eab9c"/>
      <path id="Path_765" data-name="Path 765" d="M1184.18,304.417l-.79-.27A41.008,41.008,0,0,1,1189,294l.66.507A41.2,41.2,0,0,0,1184.18,304.417Z" fill="#6eab9c"/>
      <path id="Path_766" data-name="Path 766" d="M1130.61,308.6c-.08-.069-8.35-7.016-17.57-10.255l.27-.785c9.37,3.288,17.75,10.332,17.84,10.4Z" fill="#6eab9c"/>
      <path id="Path_767" data-name="Path 767" d="M1109.11,306.162l-.38-.745c.24-.123,6.07-3.042,16.78-1.548l-.11.826C1114.96,303.247,1109.16,306.134,1109.11,306.162Z" fill="#6eab9c"/>
      <path id="Path_776" data-name="Path 776" d="M1190,42h55.27V61.042h-9.85l5.14,12.109-18.37-12.109H1190Z" fill="#eb908b"/>
      <path id="Path_777" data-name="Path 777" d="M1239.53,47.563h-42.97v2.1h42.97Z" fill="#fff"/>
      <path id="Path_778" data-name="Path 778" d="M1239.53,53.4h-42.97v2.1h42.97Z" fill="#fff"/>
      <path id="Path_782" data-name="Path 782" d="M1298.72,88.221c-5.65,4.933-8.43,4.59-10.08,2.17-.61-.9-2.32-3.133-4.23-5.577-3.19-4.115-6.93-8.829-6.93-8.829s-5.92-.374-6.05-4.956a6.412,6.412,0,0,1,.49-2.6c1.46-3.6,6.09-6.714,12.53-7.244,7.97-.658,15.2,3.293,17.31,8.82C1303.85,75.523,1304.38,83.288,1298.72,88.221Z" fill="#0c1b3c"/>
      <g id="Group_42" data-name="Group 42" opacity="0.52">
        <path id="Path_783" data-name="Path 783" d="M1284.41,84.814c-3.19-4.115-6.93-8.829-6.93-8.829s-5.92-.375-6.05-4.956a6.412,6.412,0,0,1,.49-2.6c1.18-1.841,3.39-3.426,7.53-2.9,8.88,1.119,4.76,15.959,6.95,17.521C1287.2,83.617,1286.12,84.248,1284.41,84.814Z" fill="#1b5175" opacity="0.52"/>
      </g>
      <path id="Path_784" data-name="Path 784" d="M1252.95,176.167a18.822,18.822,0,0,0-4.69,2.087c-1.54,1.165-5.29,2.974-5.37,3.581s3.16-.338,4.42-.831,1.07.722-.51,2.22a39.484,39.484,0,0,1-4.04,3.54c-1.82,1.388-2.03,2.01-1.33,2.261a1.616,1.616,0,0,0,1.35-.206s-1.64,1.243-.99,1.937,2.65-.781,2.65-.781-.57,1,.81.968,1.85-.653,3.48-1.133,6.54-5.663,7.68-7.468a19.307,19.307,0,0,0,1.72-3.366Z" fill="#ffac95"/>
      <path id="Path_785" data-name="Path 785" d="M1286.8,133.51s3.01,15.036-4.34,23.455-24.12,23.815-24.12,23.815l-6.17-4.837s15.1-19.988,17.17-27.661c.44-1.636.86-4.778.86-4.778Z" fill="#f5911f"/>
      <path id="Path_786" data-name="Path 786" d="M1265.5,173.97a5.422,5.422,0,0,1,.22-3.257c.7-1.521,4,3.033,4,3.033l.87,3.791Z" fill="#ffac95"/>
      <path id="Path_787" data-name="Path 787" d="M1346.95,277.194c2.82,3.033,8.8,14.452,8.8,14.452l-4.43,3.22s-6.14,4.463-7.55,5.486-10.77,7.829-10.77,7.829a15.407,15.407,0,0,1,1.42-7.573c.957-1.9,4.6-5.528,4.346-10.12-.144-2.645-3.56-5.638-5.286-9.727q-.825-1.945-1.95-4.056l9.72-9.066a60.284,60.284,0,0,0,2.81,5.435A24.111,24.111,0,0,0,1346.95,277.194Z" fill="#1b5175"/>
      <path id="Path_788" data-name="Path 788" d="M1331.53,276.71l9.72-9.066a60.284,60.284,0,0,0,2.81,5.435l-10.58,7.683Q1332.655,278.822,1331.53,276.71Z" fill="#e9928b"/>
      <path id="Path_789" data-name="Path 789" d="M1349.13,265.459,1327.55,280.2s-11.28-13.882-21.29-26.639c-6.68-8.519-12.79-16.53-14.58-19.591-3.61-6.166-8.77-30.539-10.62-39.679-.44-2.174-.69-3.489-.69-3.489l2.64-7.423,5.13-14.411.38-1.069a41.142,41.142,0,0,1,7.83-2.932,21.837,21.837,0,0,1,3.32-.58c3.36-.288,6.43.511,7.39,3.933.05.2.1.411.14.63.19,1.023.4,2.334.62,3.855,1.86,12.954,4.48,41.529,5.3,44.74C1314.05,221.139,1349.13,265.459,1349.13,265.459Z" fill="#5f6386"/>
      <path id="Path_790" data-name="Path 790" d="M1306.26,253.565c-6.68-8.519-12.79-16.53-14.58-19.59-3.61-6.167-8.77-30.54-10.62-39.68a22.419,22.419,0,0,1,1.1-3.69c1.11-1.667,25.67-17.787,25.67-17.787s1.02,14.411-3.85,23.606-9.03,15.941-5.14,25.848-4.45,15.617,2.23,21.176A14.51,14.51,0,0,1,1306.26,253.565Z" fill="#4a4e73"/>
      <path id="Path_791" data-name="Path 791" d="M1264.5,291.318c.5,4.111-1.37,16.868-1.37,16.868H1235a15.374,15.374,0,0,1,5.6-5.289c1.814-.938,6.7-.02,9.117-3.6,1.546-2.283.718-8.436,1.783-13.013q.48-2.055.81-4.426l13.19-1.617s-.62,2.892-.93,6.048A24.38,24.38,0,0,0,1264.5,291.318Z" fill="#1b5175"/>
      <path id="Path_792" data-name="Path 792" d="M1252.31,281.853l13.19-1.617s-.62,2.892-.93,6.048H1251.5C1251.82,284.909,1252.09,283.438,1252.31,281.853Z" fill="#e9928b"/>
      <path id="Path_793" data-name="Path 793" d="M1276.95,161.856s-18.94,44.484-24.47,62.9-13.94,58.169-13.94,58.169h28.94s11.32-53.957,16.32-62.645,23.68-40.273,20.78-51.591S1276.95,161.856,1276.95,161.856Z" fill="#5f6386"/>
      <path id="Path_794" data-name="Path 794" d="M1307.83,172.818l-8.78,22.8-28.46-18.078,17.56-8.556,8.2-4,2.3-1.124,1.02.544,7.39,3.933a5.916,5.916,0,0,1,.15.63C1307.4,169.982,1307.61,171.293,1307.83,172.818Z" fill="#4a4e73"/>
      <path id="Path_795" data-name="Path 795" d="M1293,101.86a33.876,33.876,0,0,0-12.63,10.775c-5.79,7.9-12.63,22.578-13.15,25.369s4.51,24.971,4.49,30.7,26.92,3.608,34.55-.078c0,0-2.99-20.979-2.99-23.875s.26-22.372-1.32-31.32A15.094,15.094,0,0,0,1293,101.86Z" fill="#ffab40"/>
      <path id="Path_796" data-name="Path 796" d="M1291.37,122.5s-1.08,7.2,0,12.625-7.38,2.124-10.31,13.159,22.17,5.683,22.17,5.683,6.91-10.638,6.96-12.447S1291.37,122.5,1291.37,122.5Z" fill="#f5911f"/>
      <path id="Path_797" data-name="Path 797" d="M1293,101.86s-13.22,13.6-12.06,10.022c.64-1.974-.47-6.692-1.6-10.533-.93-3.138-1.86-5.692-1.86-5.692s2.54-2.585,5.2-4.791c2.82-2.339,5.77-4.248,5.96-2.183C1289.02,92.7,1293,101.86,1293,101.86Z" fill="#ffac95"/>
      <path id="Path_798" data-name="Path 798" d="M1258.77,129.232l-14.89,32.1,55.36,25.713,14.9-32.095Z" fill="#2e4fbe"/>
      <path id="Path_799" data-name="Path 799" d="M1260.56,134.128l-11.79,25.408,48.68,22.608,11.79-25.408Z" fill="#fff"/>
      <path id="Path_800" data-name="Path 800" d="M1253.76,162.317l19.97-14.037,2.16,24.314Z" fill="#2e4fbe"/>
      <path id="Path_801" data-name="Path 801" d="M1274.87,172.165l15.44-10.857,1.67,18.809Z" fill="#2e4fbe"/>
      <path id="Path_802" data-name="Path 802" d="M1286.88,154.125a3.633,3.633,0,1,0-4.88,1.6A3.629,3.629,0,0,0,1286.88,154.125Z" fill="#2e4fbe"/>
      <path id="Path_803" data-name="Path 803" d="M1275.79,166.959s-2.57.365-4.39.831-5.41.21-5.82,1.042,4.03,1.562,5.11,1.662-1.68,1.626-3.24,2.06-2.81,1.06-1.2,2.517,4.11,3.641,5.15,3.8,6.14-3.7,8.95-6.555S1275.79,166.959,1275.79,166.959Z" fill="#ffac95"/>
      <path id="Path_804" data-name="Path 804" d="M1293.26,106.711c-4.96,3.8-3.02,13.557-.52,19.874s9.6,17.9,9.07,18.951-26.85,21.039-26.85,21.039l5.41,6.8s24.99-12.57,31.18-17.042,6.71-9.345,4.87-15.662S1303.92,98.553,1293.26,106.711Z" fill="#ffab40"/>
      <path id="Path_805" data-name="Path 805" d="M1257.2,283.04l-1.23-.215c.39-2.274,9.75-55.716,11.4-60.745,1.64-5,14.51-37.541,15.06-38.921l1.16.462c-.13.338-13.41,33.882-15.03,38.852C1266.94,227.411,1257.3,282.483,1257.2,283.04Z" fill="#4a4e73"/>
      <path id="Path_806" data-name="Path 806" d="M1339.62,272.014c-.19-.247-19.7-24.707-29.92-37.354-10.31-12.762-14.12-30.681-14.16-30.859l1.22-.256c.04.178,3.8,17.805,13.92,30.324,10.22,12.648,29.72,37.113,29.92,37.359Z" fill="#4a4e73"/>
      <path id="Path_808" data-name="Path 808" d="M1286.42,90.264s-1.98,7.263-7.08,11.085c-.93-3.138-1.86-5.691-1.86-5.691s2.54-2.585,5.2-4.791Z" fill="#e9928b"/>
      <path id="Path_809" data-name="Path 809" d="M1277.87,71.444s-3.55,8.816-6.91,10.528-1.12,2.106,0,4.015-3.16,7.829.53,10.528,12.23-1.713,14.93-6.253c0,0,4.67.2,5.79-3.357s-2.5-5.792-4.6-4.211-2.37-1.713-3.29-6.646S1278.32,70.393,1277.87,71.444Z" fill="#ffac95"/>
      <path id="Path_810" data-name="Path 810" d="M1196.71,149.581l-146.79,2.5-2.92-2.5V101.328h149.71l2.92,2.5Z" fill="#e3e7f3"/>
      <path id="Path_811" data-name="Path 811" d="M1196.71,96.844l-146.79,2.5-2.92-2.5V86h149.71l2.92,2.5Z" fill="#e3e7f3"/>
      <path id="Path_812" data-name="Path 812" d="M1199.63,103.831H1049.92v48.253h149.71Z" fill="#f5f8ff"/>
      <path id="Path_813" data-name="Path 813" d="M1199.63,88.5H1049.92V99.351h149.71Z" fill="#edf6f5"/>
      <path id="Path_814" data-name="Path 814" d="M1078.57,95.953a2.028,2.028,0,1,0-2.02-2.028A2.03,2.03,0,0,0,1078.57,95.953Z" fill="#67a4c3"/>
      <path id="Path_815" data-name="Path 815" d="M1071.06,93.924a2.03,2.03,0,1,1-2.03-2.028A2.03,2.03,0,0,1,1071.06,93.924Z" fill="#eb908b"/>
      <path id="Path_816" data-name="Path 816" d="M1059.49,95.953a2.028,2.028,0,1,0-2.03-2.028A2.03,2.03,0,0,0,1059.49,95.953Z" fill="#ffaa3f"/>
      <path id="Path_817" data-name="Path 817" d="M1169.53,106.184a19.28,19.28,0,1,0,19.28,19.28A19.277,19.277,0,0,0,1169.53,106.184Zm0,31.69a12.41,12.41,0,1,1,12.41-12.41A12.406,12.406,0,0,1,1169.53,137.874Z" fill="#e3e7f3"/>
      <path id="Path_818" data-name="Path 818" d="M1187.74,113.492a19.268,19.268,0,0,0-32.89,13.639,19.491,19.491,0,0,0,.33,3.6,19.275,19.275,0,1,0,32.56-17.243Zm-7.4,24.377a12.406,12.406,0,0,1-18.41-8.427,12.4,12.4,0,0,1,12.19-14.722,12.414,12.414,0,0,1,6.22,23.149Z" fill="#2e4fbe"/>
      <path id="Path_819" data-name="Path 819" d="M1193.4,127.131a19.284,19.284,0,0,1-9.61,16.69l-3.45-5.951a12.413,12.413,0,0,0,2.55-19.522l4.85-4.856A19.182,19.182,0,0,1,1193.4,127.131Z" fill="#fff"/>
      <path id="Path_820" data-name="Path 820" d="M1183.79,143.821a19.287,19.287,0,0,1-28.6-13.086l6.75-1.293a12.408,12.408,0,0,0,18.41,8.428Z" fill="#ffc945"/>
      <path id="Path_821" data-name="Path 821" d="M1124.98,113.282h-67.1v3.134h67.1Z" fill="#e3e7f3"/>
      <path id="Path_822" data-name="Path 822" d="M1124.98,126.213h-67.1v3.133h67.1Z" fill="#e3e7f3"/>
      <path id="Path_823" data-name="Path 823" d="M1124.98,139.148h-67.1v3.134h67.1Z" fill="#e3e7f3"/>
      <path id="Path_825" data-name="Path 825" d="M1144.04,19.7H1059s5.85-13.054,19.35-7.651c0,0,4.95-13.5,16.64-11.926s13.95,9.725,13.95,9.725,12.6-5,24.75,5.129C1133.69,14.982,1143.59,13.854,1144.04,19.7Z" fill="#e3e7f3"/>
    </g>
    <g id="Group_47" data-name="Group 47" transform="translate(337.977 -3.215)">
      <path id="Path_674" data-name="Path 674" d="M304.026,93.369l-3.152-7.492s-5.831-6.151-2.52-11.116S315.7,68.61,318.773,86.746c0,0,4.963.159,5.831,4.965s-3.47,7.964-4.81,11.512a8.8,8.8,0,0,1-4.337,4.811l-5.6.868Z" fill="#0c1b3c"/>
      <path id="Path_675" data-name="Path 675" d="M338,194.218s-3.311,5.283-4.1,8.123-1.5,3.707-.868,4.256,2.207-2.284,3.311-3.707,1.263,3.784,1.263,5.679-.912,5.284.115,5.361,3.668-4.339,4.612-6.152.522-13.56.522-13.56Z" fill="#e9928b"/>
      <path id="Path_676" data-name="Path 676" d="M329.446,299.924,327.08,301.7s-1.774,6.86-.945,9.518h28.023a16.76,16.76,0,0,0-8.279-5.646c-5.557-1.747-7.215-2.334-8.038-3.872S329.446,299.924,329.446,299.924Z" fill="#ffab40"/>
      <path id="Path_677" data-name="Path 677" d="M284.87,298.979l2.009,2.718s2.482,6.031,1.417,9.518H264.885a7.323,7.323,0,0,1,4.255-5.646,69.822,69.822,0,0,0,7.329-3.872Z" fill="#ffab40"/>
      <path id="Path_680" data-name="Path 680" d="M337.841,301.7H327.08l-.747-5.026-.785-5.267,11.464-1.653.483,6.92Z" fill="#e9928b"/>
      <path id="Path_681" data-name="Path 681" d="M288.3,291.646l-.708,5.025-.714,5.025h-10.4l.653-5.025.648-5.025Z" fill="#e9928b"/>
      <path id="Path_682" data-name="Path 682" d="M277.776,291.646H288.3l-.708,5.025H277.128Z" fill="#de6667"/>
      <path id="Path_683" data-name="Path 683" d="M337.495,296.672H326.333l-.785-5.267,11.464-1.653Z" fill="#de6667"/>
      <path id="Path_684" data-name="Path 684" d="M340.443,294.129H323.654s-13.007-46.366-14.423-52.995-6.309-21.211-6.309-21.211l-12.611,74.2H275.5s-.62-35.721,0-47.552c.494-9.447,3.009-39.566,5.568-54.566a37.521,37.521,0,0,1,1.91-7.887c3.075-6.387,40.673,7.332,40.673,7.332s.258,1.456.7,3.982c1.438,8.14,4.842,27.358,7.972,44.515C336.419,262.427,340.443,294.129,340.443,294.129Z" fill="#5f6386"/>
      <path id="Path_685" data-name="Path 685" d="M302.922,219.928l-5.639-19.949s-5.792,11.04-4.139,19.949-5.068,12.187-.3,21.683-2.1,16.752,2.531,22.689Z" fill="#4a4e73"/>
      <path id="Path_686" data-name="Path 686" d="M324.356,195.444a34.271,34.271,0,0,1-16.526-.885c-15.021-4.168-22.96-3.553-26.765-2.548a37.568,37.568,0,0,1,1.911-7.887c3.074-6.387,40.672,7.332,40.672,7.332S323.912,192.917,324.356,195.444Z" fill="#4a4e73"/>
      <path id="Path_687" data-name="Path 687" d="M266.07,103.221s-.944-4.9,1.181-7.436,7.192,1.406,7.192,1.406,3.283,3.531,1.592,6.848S266.07,103.221,266.07,103.221Z" fill="#e9928b"/>
      <path id="Path_688" data-name="Path 688" d="M330.8,144c-2.059,11.94-5.436,25.231-5.013,31.141.785,11.04,1.263,15.142,1.894,17.191s-9.3,3.784-20.023,0a87.5,87.5,0,0,0-17.136-3.636c-5.814-.725-10.294-.934-10.294-.934s3-15.933,3.942-24.292a97.223,97.223,0,0,0-.055-17.976l-.016.016c-.461.357-12.189,9.326-18.223,3.515a8.549,8.549,0,0,1-2.02-3.422c-3.959-11.484,3.607-39.22,3.607-39.22l8.988,1.263s-1.263,21.607-.473,21.766,9.3-7.568,13.4-10.567c2.295-1.681,6.161-2.669,10.234-3.109a47.228,47.228,0,0,1,9.312-.049,54.3,54.3,0,0,1,9.131,1.164c3.975.846,8.477,2.312,11.837,4.828C333.394,124.313,332.592,133.645,330.8,144Z" fill="#7dc4be"/>
      <g id="Group_40" data-name="Group 40" opacity="0.65">
        <path id="Path_689" data-name="Path 689" d="M327.673,192.329c.626,2.054-9.3,3.784-20.023,0a87.5,87.5,0,0,0-17.136-3.636c1.982-2.472,5.37-4.976,12.408-7.058,17.262-5.113.785-13.9,10.69-19.657s10.745-23.353,10.745-23.353l6.435,5.366c-2.059,11.94-5.436,25.232-5.013,31.141C326.569,186.177,327.042,190.275,327.673,192.329Z" fill="#379690" opacity="0.65"/>
      </g>
      <path id="Path_690" data-name="Path 690" d="M318.042,116.848c-4.37,8.178-16.751,15.329-16.751,15.329-2.135-6.179-1.9-13.528-1.691-16.45a47.228,47.228,0,0,1,9.312-.049A55.345,55.345,0,0,1,318.042,116.848Z" fill="#fff"/>
      <path id="Path_691" data-name="Path 691" d="M323.89,121.045c2.158-2.4,6.621-.313,12.139,7.728s10.245,25.863,11.2,32.014-.472,27.286-3.47,36.431l-8.054-.632s-2.037-30.279-2.35-32.328-6.781-18.295-9.46-27.126S321.051,124.2,323.89,121.045Z" fill="#7dc4be"/>
      <path id="Path_692" data-name="Path 692" d="M315.451,116.864c0,1.187-1.734,3.23-5.99,4.021s-9.46-2.285-7.884-4.339a9.215,9.215,0,0,0,1.164-3.911,45.652,45.652,0,0,0,.335-5.629s9.218-8.6,9.142-4.18,3.228,5.207,3.228,5.207C314.353,112.921,315.451,115.683,315.451,116.864Z" fill="#e9928b"/>
      <path id="Path_693" data-name="Path 693" d="M312.223,102.826c-2.46,6.2-6.325,8.771-9.482,9.809a45.664,45.664,0,0,0,.335-5.63S312.3,98.415,312.223,102.826Z" fill="#de6667"/>
      <path id="Path_694" data-name="Path 694" d="M278.061,98.186,261.64,119.331a1.355,1.355,0,0,1-.9.511,1.329,1.329,0,0,1-.994-.274,5.577,5.577,0,0,1-.983-7.816L272.6,93.94Z" fill="#8fb9cf"/>
      <path id="Path_695" data-name="Path 695" d="M278.062,98.186,261.64,119.331a1.355,1.355,0,0,1-.9.511,5.563,5.563,0,0,1,.4-6.239l13.83-17.812Z" fill="#7a9db0"/>
      <path id="Path_696" data-name="Path 696" d="M285.413,96.691c-2.415,3.109-5.034,5.114-5.852,4.482s.477-3.669,2.893-6.783,5.035-5.113,5.853-4.482S287.829,93.583,285.413,96.691Z" fill="#8fb9cf"/>
      <path id="Path_697" data-name="Path 697" d="M278.147,81.979,269.386,93.26l10.18,7.911,8.761-11.281Z" fill="#8fb9cf"/>
      <path id="Path_698" data-name="Path 698" d="M282.871,95.664,276.92,91.04a.763.763,0,1,1,.938-1.2l5.952,4.625a.757.757,0,0,1,.132,1.071A.767.767,0,0,1,282.871,95.664Z" fill="#7a9db0"/>
      <path id="Path_699" data-name="Path 699" d="M285.078,92.336l-5.951-4.625a.763.763,0,1,1,.939-1.2l5.951,4.624a.757.757,0,0,1,.132,1.071A.767.767,0,0,1,285.078,92.336Z" fill="#7a9db0"/>
      <path id="Path_700" data-name="Path 700" d="M280.231,98.576l-5.952-4.624a.763.763,0,1,1,.939-1.2l5.951,4.625a.756.756,0,0,1,.132,1.071A.766.766,0,0,1,280.231,98.576Z" fill="#7a9db0"/>
      <path id="Path_701" data-name="Path 701" d="M275.234,88.778l-.011.017c-.346.45-.7.873-1.048,1.269-.407.456-.8.873-1.192,1.252-1.62,1.565-3.042,2.378-3.6,1.944l-.016.022L225.733,77.123,251.7,43.681l26.442,38.3-.016.022c.488.379.219,1.626-.593,3.229-.171.335-.363.687-.582,1.049-.225.379-.473.769-.747,1.164C275.9,87.883,275.58,88.333,275.234,88.778Z" fill="#b2d3e4"/>
      <path id="Path_702" data-name="Path 702" d="M275.235,88.777l-.011.017-35.6-26.737,4.409-5.674,32.168,31.07C275.9,87.882,275.58,88.332,275.235,88.777Z" fill="#fff" opacity="0.15"/>
      <path id="Path_703" data-name="Path 703" d="M274.168,90.063c-.406.456-.8.873-1.191,1.252L231.173,70.2l6.517-4.68Z" fill="#fff" opacity="0.15"/>
      <path id="Path_704" data-name="Path 704" d="M276.952,86.279,245.663,52.523l2.086-1.906,29.785,34.607C277.364,85.559,277.166,85.916,276.952,86.279Z" fill="#fff" opacity="0.15"/>
      <path id="Path_705" data-name="Path 705" d="M243.11,63.814a73.587,73.587,0,0,1-6.072,6.92h-.006c-5.057,5.047-9.564,7.739-11.3,6.382-2.426-1.889,1.417-10.9,8.587-20.135S249.27,41.79,251.7,43.68c1.746,1.357.252,6.388-3.388,12.539A72.742,72.742,0,0,1,243.11,63.814Z" fill="#8fb9cf"/>
      <path id="Path_706" data-name="Path 706" d="M242.824,84.833a.72.72,0,0,1,.884-1.137c.615.478,3.223-.4,7.61-4.773l.352-.351a56.038,56.038,0,0,0,4.189-4.817,54.079,54.079,0,0,0,3.887-5.679c3.157-5.333,3.354-8.079,2.74-8.557a.72.72,0,1,1,.884-1.137c2.338,1.818-.89,7.892-2.383,10.419A56.9,56.9,0,0,1,257,74.628a56.315,56.315,0,0,1-4.656,5.306l-.456.445C249.589,82.6,245.01,86.524,242.824,84.833Z" fill="#8fb9cf"/>
      <path id="Path_707" data-name="Path 707" d="M243.11,63.814a73.6,73.6,0,0,1-6.073,6.92h-.005a9.5,9.5,0,0,1,11.277-14.522A72.209,72.209,0,0,1,243.11,63.814Z" fill="#7a9db0"/>
      <path id="Path_708" data-name="Path 708" d="M242.347,61.48c-.719.928-1.812,1.285-2.438.8s-.549-1.631.171-2.559,1.811-1.285,2.437-.8S243.066,60.551,242.347,61.48Z" fill="#fff" opacity="0.15"/>
      <path id="Path_709" data-name="Path 709" d="M276.437,107.638s-.313-6.646-2.262-8.9-3.591-1.845-3.256,0,1.828,5.086.384,8.156Z" fill="#e9928b"/>
      <path id="Path_710" data-name="Path 710" d="M274.136,288.226v6.53h16.532l1.5-6.53Z" fill="#4a4e73"/>
      <path id="Path_711" data-name="Path 711" d="M322.9,294.756h18.7l-.544-6.53H320.919Z" fill="#4a4e73"/>
      <path id="Path_712" data-name="Path 712" d="M335.085,305.179l-.456-.153c.022-.066.554-1.56,3.739-2.73l.165.45C335.6,303.823,335.09,305.163,335.085,305.179Z" fill="#fff"/>
      <path id="Path_713" data-name="Path 713" d="M338.687,306.981l-.461-.121a4.737,4.737,0,0,1,3.3-3.147l.126.461A4.242,4.242,0,0,0,338.687,306.981Z" fill="#fff"/>
      <path id="Path_714" data-name="Path 714" d="M343.073,306.943l-.477-.044a4.235,4.235,0,0,1,1-2.312l.346.329A3.835,3.835,0,0,0,343.073,306.943Z" fill="#fff"/>
      <path id="Path_715" data-name="Path 715" d="M280.1,303.548a14.187,14.187,0,0,0-4.87-.867l-.016-.478a14.222,14.222,0,0,1,5.057.9Z" fill="#fff"/>
      <path id="Path_716" data-name="Path 716" d="M277.337,305.317a15.173,15.173,0,0,0-4.573-1.285l.027-.478a15.126,15.126,0,0,1,4.738,1.323Z" fill="#fff"/>
      <path id="Path_717" data-name="Path 717" d="M273.159,306.179a6.987,6.987,0,0,0-2.751-.972l.072-.473a7.368,7.368,0,0,1,3,1.093Z" fill="#fff"/>
      <g id="Group_41" data-name="Group 41" opacity="0.65">
        <path id="Path_718" data-name="Path 718" d="M286.308,133.14c-1.664,4.317-2.207,12.352-2.207,12.352l-.017.016c-.461.357-12.188,9.326-18.222,3.515a8.564,8.564,0,0,1-2.021-3.421c3.338.461,6.193,3.976,10.147-.105C280.126,139.148,286.308,133.14,286.308,133.14Z" fill="#379690" opacity="0.65"/>
      </g>
      <path id="Path_719" data-name="Path 719" d="M300.874,85.878s-6.545,17.976-1.576,21.607,12.93-4.652,12.93-4.652a6.287,6.287,0,0,0,5.205-2.6c1.812-2.757-1.34-3.971-2.756-3.086s-3.075-.461-1.971-3.85.472-3.548-1.658-3.076S301.11,86.823,300.874,85.878Z" fill="#e9928b"/>
      <path id="Path_720" data-name="Path 720" d="M337.132,288.318a692.4,692.4,0,0,0-18.612-92.056l1.378-.407a693.611,693.611,0,0,1,18.656,92.271Z" fill="#4a4e73"/>
      <path id="Path_768" data-name="Path 768" d="M231.479,309.944s.051-30.759-33.619-15.8c0,0-7.4-26.479-26.789-25.227s-21.269,26.31-21.269,26.31-26.556-13.5-40.8,13.881Z" transform="translate(0 2)" fill="#e3e7f3"/>
      <path id="Path_769" data-name="Path 769" d="M174.76,308.852l-.827-.114a39.9,39.9,0,0,0-6.47-27.621l.662-.507A40.828,40.828,0,0,1,174.76,308.852Z" transform="translate(0 2)" fill="#6eab9c"/>
      <path id="Path_770" data-name="Path 770" d="M175.062,299.022l-.676-.493c.077-.11,7.954-10.944,9.3-17.755l.818.16C183.125,287.932,175.39,298.575,175.062,299.022Z" transform="translate(0 2)" fill="#6eab9c"/>
      <path id="Path_771" data-name="Path 771" d="M174.687,304.7c-6.15-.384-11.589-7.665-11.817-7.975l.671-.494c.055.074,5.438,7.277,11.2,7.638Z" transform="translate(0 2)" fill="#6eab9c"/>
      <path id="Path_772" data-name="Path 772" d="M194.413,308.742l1.118-.8c.1-.077,10.767-7.632,22.178-8.167l.041.832c-8.936.415-17.424,5.253-20.511,7.2l11.073-.384.027.832Z" transform="translate(0 2)" fill="#6eab9c"/>
      <path id="Path_773" data-name="Path 773" d="M203.179,304.417l-.79-.27A41.365,41.365,0,0,1,208,294l.662.507A41.288,41.288,0,0,0,203.179,304.417Z" transform="translate(0 2)" fill="#6eab9c"/>
      <path id="Path_774" data-name="Path 774" d="M149.61,308.6c-.082-.069-8.351-7.016-17.574-10.255l.274-.785c9.374,3.288,17.752,10.332,17.839,10.4Z" transform="translate(0 2)" fill="#6eab9c"/>
      <path id="Path_775" data-name="Path 775" d="M128.109,306.162l-.379-.745c.242-.123,6.068-3.042,16.785-1.548l-.114.826C133.963,303.247,128.164,306.134,128.109,306.162Z" transform="translate(0 2)" fill="#6eab9c"/>
      <path id="Path_826" data-name="Path 826" d="M169.038,99.7H84s5.849-13.054,19.346-7.651c0,0,4.95-13.5,16.648-11.926s13.949,9.725,13.949,9.725,12.6-5,24.748,5.129C158.691,94.982,168.59,93.854,169.038,99.7Z" fill="#e3e7f3"/>
    </g>
    <g id="Group_48" data-name="Group 48" transform="translate(375 -0.002)">
      <path id="Path_721" data-name="Path 721" d="M560.542,101.439s-2.055-6.857-2.055-9.054,2.009-8.367,3.13-8.5,3.311,11.932,4.275,13.578-.822,3.979-.822,3.979Z" transform="translate(0 2)" fill="#91415c"/>
      <path id="Path_722" data-name="Path 722" d="M458.162,253.441l-7.289-8.034,2.8-2.868,5.659-5.8,6.981,7.691-5.452,6.029Z" transform="translate(0 2)" fill="#91415c"/>
      <path id="Path_723" data-name="Path 723" d="M460.857,250.457l-7.188-7.918,5.659-5.8,6.981,7.691Z" transform="translate(0 2)" fill="#75354a"/>
      <path id="Path_724" data-name="Path 724" d="M450.873,245.407l7.289,8.029s-.4,6.943,2.71,11.2S464.82,271.852,463.4,275l-21.68-23.89Z" transform="translate(0 2)" fill="#1b5175"/>
      <path id="Path_725" data-name="Path 725" d="M458.091,256.315a23.971,23.971,0,0,0-5.689-2.333l.116-.424a23.912,23.912,0,0,1,5.831,2.4Z" fill="#fff"/>
      <path id="Path_726" data-name="Path 726" d="M458.414,258.638a12.641,12.641,0,0,0-5.158-.5l-.051-.439a12.872,12.872,0,0,1,5.381.535Z" fill="#fff"/>
      <path id="Path_727" data-name="Path 727" d="M455.062,261.834l-.162-.409a15.7,15.7,0,0,1,4.1-.954l.025.439A15.758,15.758,0,0,0,455.062,261.834Z" fill="#fff"/>
      <path id="Path_728" data-name="Path 728" d="M441.734,251.1,440,252.677l21.682,23.89,1.734-1.575Z" transform="translate(0 2)" fill="#dceceb"/>
      <path id="Path_729" data-name="Path 729" d="M513.512,181.955s-.136.752-.389,2.04c-.53,2.737-1.58,7.9-2.928,13.437-1.741,7.115-3.982,14.841-6.284,18.815-2.665,4.6-13.634,14.29-23.154,22.233-8.1,6.751-15.144,12.235-15.144,12.235l-14.739-15.128s30.5-27.5,31.321-28.6,4.442-17.078,5.815-29.7a75.339,75.339,0,0,1,3.973-16.133,112.592,112.592,0,0,1,4.523-11.023l14.26,5.211.141,1.338L512.29,170.1Z" transform="translate(0 2)" fill="#376f92"/>
      <path id="Path_730" data-name="Path 730" d="M513.122,183.995c-.53,2.737-1.58,7.9-2.927,13.437-1.742,7.115-3.983,14.841-6.285,18.815-2.665,4.6-13.634,14.29-23.154,22.233,2.281-12.417,16.966-11.3,14.79-20.38-2.261-9.463,7.2-13.169,3.427-25.51s2.332-20.572,2.332-20.572S506.838,177.542,513.122,183.995Z" transform="translate(0 2)" fill="#1b5175"/>
      <path id="Path_731" data-name="Path 731" d="M543.142,85.392a16.228,16.228,0,0,0-4.276,5.9,20.069,20.069,0,0,0-1.57,5.615c-1.03,7.816-14.6-.616-14.6-.616l6.582-13.785,5.391-2.878,4.2,2.858Z" transform="translate(0 2)" fill="#91415c"/>
      <path id="Path_732" data-name="Path 732" d="M522.7,94.34s1.075-3.353,2.6-3.479,12.624,1.5,13.139,4.08a9.3,9.3,0,0,1,0,4.232Z" transform="translate(0 2)" fill="#f5911f"/>
      <path id="Path_733" data-name="Path 733" d="M564.792,106.242l1.1-5.075s-5.073-1.318-6.992-1.071-3.7,6.146-3.7,6.146Z" transform="translate(0 2)" fill="#f5911f"/>
      <path id="Path_734" data-name="Path 734" d="M536.272,132.712s7.107,1.908,22.13-11.589-12.463-8.165-12.463-8.165Z" transform="translate(0 2)" fill="#f5911f"/>
      <path id="Path_735" data-name="Path 735" d="M562.192,257.184H516.409v1.323h45.783Z" transform="translate(0 2)" fill="#040707"/>
      <path id="Path_736" data-name="Path 736" d="M534.2,307.341l-13.938-64.1-13.937,64.1-1.292-.282,14.583-67.074a.662.662,0,0,1,1.293,0l14.583,67.074Z" transform="translate(0 2)" fill="#040707"/>
      <path id="Path_737" data-name="Path 737" d="M534.546,269.409H523.7l-.242-4-.49-8.09H533.35l.8,8.09Z" transform="translate(0 2)" fill="#91415c"/>
      <path id="Path_738" data-name="Path 738" d="M534.152,265.41H523.461l-.49-8.09H533.35Z" transform="translate(0 2)" fill="#75354a"/>
      <path id="Path_739" data-name="Path 739" d="M523.7,269.409h10.843s4.871,4.964,10.111,5.514,7.995,1.929,9.373,5.1H521.775Z" transform="translate(0 2)" fill="#1b5175"/>
      <path id="Path_740" data-name="Path 740" d="M531.078,274.039l-.237-.374a23.8,23.8,0,0,1,5.694-2.7l.091.429A24.327,24.327,0,0,0,531.078,274.039Z" transform="translate(0 2)" fill="#fff"/>
      <path id="Path_741" data-name="Path 741" d="M534.728,276.2l-.359-.257a12.9,12.9,0,0,1,4.013-3.626l.187.4A12.579,12.579,0,0,0,534.728,276.2Z" transform="translate(0 2)" fill="#fff"/>
      <path id="Path_742" data-name="Path 742" d="M538.68,277.346l-.414-.156a15.785,15.785,0,0,1,2.05-3.676l.343.277A15.339,15.339,0,0,0,538.68,277.346Z" transform="translate(0 2)" fill="#fff"/>
      <path id="Path_743" data-name="Path 743" d="M554.03,280.028H521.775v2.343H554.03Z" transform="translate(0 2)" fill="#dceceb"/>
      <path id="Path_744" data-name="Path 744" d="M580.112,307.341l-13.942-64.1-13.942,64.1-1.292-.282,14.583-67.074a.661.661,0,0,1,1.292,0L581.4,307.059Z" transform="translate(0 2)" fill="#040707"/>
      <path id="Path_745" data-name="Path 745" d="M556.983,281.71h-45.91v1.323h45.91Z" transform="translate(0 2)" fill="#040707"/>
      <path id="Path_746" data-name="Path 746" d="M541.053,263.683H518.842s.434-37.019.434-43.6c0-4.681-4.437-12.412-9.076-22.653a145.48,145.48,0,0,1-5.461-13.694A123.3,123.3,0,0,1,500.2,166.2a68.918,68.918,0,0,1-1.222-10.862l11.933,1.338,17.41,1.954s1.908,6.746,4.275,15.457c3.776,13.912,8.718,32.827,8.885,37.215C541.754,218.438,541.053,263.683,541.053,263.683Z" transform="translate(0 2)" fill="#376f92"/>
      <path id="Path_747" data-name="Path 747" d="M532.6,174.093c-4.815-2.03-9.772-3.974-14.7-3.727a29.164,29.164,0,0,1-5.613-.272,40.335,40.335,0,0,1-12.095-3.888,52.962,52.962,0,0,1-8.212-5.05,112.765,112.765,0,0,1,4.522-11.023l14.26,5.211.142,1.338,17.41,1.954C528.322,158.636,530.23,165.383,532.6,174.093Z" transform="translate(0 2)" fill="#1b5175"/>
      <path id="Path_748" data-name="Path 748" d="M601.676,104.939s-18.51,18.108-23.856,19.34-25.092-5.145-28.383-4.938c-1.49.1-4.629,10.559-7.607,21.991-3.61,13.815-7,29.035-7,29.035s-9.252-3.7-24.27-4.732a33.991,33.991,0,0,1-6.012-.934c-10.459-2.62-14.345-9.352-14.345-9.352,14.81-21.193,15.012-39.71,18.1-51.228s15.426-12.346,24.679-9.463c4.1,1.277,12.958,2.878,17.071,4.322s25.3,9.67,26.739,9.67,18.919-9.877,18.919-9.877C601.262,98.764,601.676,104.939,601.676,104.939Z" transform="translate(0 2)" fill="#ffab40"/>
      <path id="Path_749" data-name="Path 749" d="M596.053,100.06a29.387,29.387,0,0,1,6.583-4.383c3.018-1.232,7.127-3.767,7.127-2.434s-3.7,3.222-3.7,3.222L617.34,95.44s-4.972,5.039-8.945,6-9.051,2.742-9.051,2.742Z" transform="translate(0 2)" fill="#91415c"/>
      <path id="Path_750" data-name="Path 750" d="M628.689,54.842l-67.9,5.664,3.281,39.365,67.9-5.664Z" transform="translate(0 2)" fill="#e3e7f3"/>
      <path id="Path_751" data-name="Path 751" d="M624.931,59.285l-59.7,4.98,2.6,31.163,59.7-4.98Z" transform="translate(0 2)" fill="#fff"/>
      <path id="Path_752" data-name="Path 752" d="M574.176,95.36l11.615-24.652,15.532,22.385Z" transform="translate(0 2)" fill="#e3e7f3"/>
      <path id="Path_753" data-name="Path 753" d="M600.092,93.244l8.98-19.067,12.014,17.315Z" transform="translate(0 2)" fill="#e3e7f3"/>
      <path id="Path_754" data-name="Path 754" d="M597.915,73.329a4.055,4.055,0,1,0-4.248-3.85A4.054,4.054,0,0,0,597.915,73.329Z" transform="translate(0 2)" fill="#e3e7f3"/>
      <path id="Path_755" data-name="Path 755" d="M535.505,263.849h-1.323c0-.4.051-39.751-.176-49.234-.227-9.362-16.552-47.345-16.714-47.729l1.212-.525c.676,1.571,16.592,38.6,16.824,48.219C535.561,224.083,535.505,263.45,535.505,263.849Z" transform="translate(0 2)" fill="#1b5175"/>
      <path id="Path_756" data-name="Path 756" d="M541.829,141.325c-3.609,13.816-7,29.035-7,29.035s-9.253-3.7-24.27-4.731a34.161,34.161,0,0,1-6.012-.934,13.86,13.86,0,0,1,1.126-1.121c12.387-11.109,17.021-3.7,23.084-11.725C533.288,145.85,537.685,145.516,541.829,141.325Z" transform="translate(0 2)" fill="#f5911f"/>
      <path id="Path_757" data-name="Path 757" d="M548.609,66.461l2.261-2.368s.207-4.216-4.043-9.705-6.719-3.429-4.8,0-3.841,1.646-8.98.959-9.389.04-6.855,3.383.344,3.474-5.966,6.085-5.346,6.448,0,6.857,1.787,3.565-2.327,7.953-.964,6.857,3.564,4.388,5.487.273,3.977,4.115,3.842.55,6.3-2.2,1.782,2.055,5.553-3.979S548.609,66.461,548.609,66.461Z" transform="translate(0 2)" fill="#0c1b3c"/>
      <path id="Path_758" data-name="Path 758" d="M543.142,85.392a16.219,16.219,0,0,0-4.275,5.9c-3-3.191-1.278-8.675-1.278-8.675l1.278-.136Z" transform="translate(0 2)" fill="#75354a"/>
      <path id="Path_759" data-name="Path 759" d="M550.876,64.1s-.687,6.963.615,10.528,2.6,3.7,1.03,5.075-2.6,1.1-2.948,2.676.344,6.994-3.634,6.857-8.228-5.827-8.637-7.271c0,0-4.179-1.373-4.25-4.868s3.362-4.666,4.73-3.02,2.877-.48,2.948-3.085,1.716-6.307,4.522-6.1S549.366,62.28,550.876,64.1Z" transform="translate(0 2)" fill="#91415c"/>
      <path id="Path_824" data-name="Path 824" d="M691.038,153.705H606s5.849-13.054,19.346-7.651c0,0,4.95-13.5,16.648-11.926s13.949,9.724,13.949,9.724,12.6-5,24.748,5.13C680.691,148.982,690.59,147.854,691.038,153.705Z" transform="translate(0 2)" fill="#e3e7f3"/>
      <path id="Path_827" data-name="Path 827" d="M449.038,192.705H364s5.849-13.054,19.346-7.651c0,0,4.95-13.5,16.648-11.926s13.949,9.724,13.949,9.724,12.6-5,24.748,5.13C438.691,187.982,448.59,186.854,449.038,192.705Z" fill="#e3e7f3"/>
      <path id="Path_828" data-name="Path 828" d="M753.374,242.8V222.27a11.586,11.586,0,0,0-11.584-11.588H727.145v97.642h49.394V265.973a11.587,11.587,0,0,0-11.585-11.589A11.579,11.579,0,0,1,753.374,242.8Z" fill="#e3e7f3"/>
      <path id="Path_829" data-name="Path 829" d="M879.25,283.906l-9.345,9.13-3.144-4.677-5.016-7.463,12.017-5.586,3.28,5.14Z" fill="#e9928b"/>
      <path id="Path_830" data-name="Path 830" d="M877.042,280.45a38.932,38.932,0,0,0-10.281,7.909l-5.016-7.463,12.017-5.586Z" fill="#de6667"/>
      <path id="Path_831" data-name="Path 831" d="M906.823,10H708.432V113.482H906.823Z" fill="#f5f8ff"/>
      <path id="Path_832" data-name="Path 832" d="M751.271,19.3H719.317V48.777h31.954Z" fill="#dceceb"/>
      <path id="Path_833" data-name="Path 833" d="M887.126,45.985h-1.2v-1.8h-1.8v-1.2h3Z" fill="#e3e7f3"/>
      <path id="Path_834" data-name="Path 834" d="M879.228,44.187h-4.9v-1.2h4.9Zm-9.8,0h-4.9v-1.2h4.9Zm-9.8,0h-4.9v-1.2h4.9Zm-9.8,0h-4.9v-1.2h4.9Zm-9.8,0h-4.9v-1.2h4.9Zm-9.8,0h-4.9v-1.2h4.9Zm-9.8,0h-4.9v-1.2h4.9Zm-9.8,0h-4.9v-1.2h4.9Zm-9.8,0h-4.9v-1.2h4.9Z" fill="#e3e7f3"/>
      <path id="Path_835" data-name="Path 835" d="M789.212,45.985h-1.2v-3h3v1.2h-1.8Z" fill="#e3e7f3"/>
      <path id="Path_836" data-name="Path 836" d="M789.212,94.95h-1.2v-4.9h1.2Zm0-9.79h-1.2v-4.9h1.2Zm0-9.795h-1.2v-4.9h1.2Zm0-9.795h-1.2v-4.9h1.2Zm0-9.791h-1.2v-4.9h1.2Z" fill="#e3e7f3"/>
      <path id="Path_837" data-name="Path 837" d="M791.009,102.842h-2.995V99.85h1.2v1.793h1.8Z" fill="#b6d5d0"/>
      <path id="Path_838" data-name="Path 838" d="M879.228,102.842h-4.9v-1.2h4.9Zm-9.8,0h-4.9v-1.2h4.9Zm-9.8,0h-4.9v-1.2h4.9Zm-9.8,0h-4.9v-1.2h4.9Zm-9.8,0h-4.9v-1.2h4.9Zm-9.8,0h-4.9v-1.2h4.9Zm-9.8,0h-4.9v-1.2h4.9Zm-9.8,0h-4.9v-1.2h4.9Zm-9.8,0h-4.9v-1.2h4.9Z" fill="#e3e7f3"/>
      <path id="Path_839" data-name="Path 839" d="M887.126,102.842h-3v-1.2h1.8V99.85h1.2Z" fill="#b6d5d0"/>
      <path id="Path_840" data-name="Path 840" d="M887.126,94.95h-1.2v-4.9h1.2Zm0-9.79h-1.2v-4.9h1.2Zm0-9.795h-1.2v-4.9h1.2Zm0-9.795h-1.2v-4.9h1.2Zm0-9.791h-1.2v-4.9h1.2Z" fill="#e3e7f3"/>
      <path id="Path_841" data-name="Path 841" d="M794.626,119.073H690.139a2.97,2.97,0,0,1-2.969-2.97V64.775a2.969,2.969,0,0,1,2.969-2.97H794.626a2.969,2.969,0,0,1,2.969,2.97v51.332A2.971,2.971,0,0,1,794.626,119.073Z" fill="#e3e7f3"/>
      <path id="Path_842" data-name="Path 842" d="M798.221,122.668H693.734a2.969,2.969,0,0,1-2.969-2.97V68.366a2.97,2.97,0,0,1,2.969-2.97H798.221a2.97,2.97,0,0,1,2.969,2.97V119.7A2.971,2.971,0,0,1,798.221,122.668Z" fill="#2e4fbe"/>
      <path id="Path_843" data-name="Path 843" d="M698.649,118.474h93.86s-3.127-21.908-8.055-28.566-9.053,2.529-14.51,13.452-16.775,15.849-25.028,4.925-11.982-14.384-21.17-8.521-16.377.931-19.438-6.658-5.659-7.459-5.659-7.459Z" fill="#fff" opacity="0.67"/>
      <path id="Path_844" data-name="Path 844" d="M698.649,118.473s4.325.2,7.788-4.593,4.395-12.118,8.121-14.384,7.19,0,12.381,9.488,13.311,5.027,16.775-4.427,5.06-13.985,10.784-14.515,9.319,6.527,11.318,13.317,7.189,9.055,12.38,6.26,14.313,8.858,14.313,8.858h-93.86Z" fill="#e3e7f3" opacity="0.28"/>
      <path id="Path_845" data-name="Path 845" d="M700.446,73.66a1.8,1.8,0,1,1,1.8-1.8A1.8,1.8,0,0,1,700.446,73.66Z" fill="#fff"/>
      <path id="Path_846" data-name="Path 846" d="M744.383,70.795H706.705v2.131h37.678Z" fill="#fff"/>
      <path id="Path_847" data-name="Path 847" d="M700.446,80.152a1.8,1.8,0,1,1,1.8-1.8A1.8,1.8,0,0,1,700.446,80.152Z" fill="#fff"/>
      <path id="Path_848" data-name="Path 848" d="M735.729,77.286H706.705v2.131h29.024Z" fill="#fff"/>
      <path id="Path_849" data-name="Path 849" d="M755.014,22.318H723.06V51.8h31.954Z" fill="#fff"/>
      <path id="Path_850" data-name="Path 850" d="M751.271,35.364l-11.619,5.258-11.615-5.258v7.857h23.234Z" fill="#ffab40"/>
      <path id="Path_851" data-name="Path 851" d="M751.272,31.816H728.038v2.1l11.615,5.14,11.619-5.14Z" fill="#ffab40"/>
      <path id="Path_852" data-name="Path 852" d="M851.424,41.23H787.152v-3h64.272Zm-63.869-.4h63.471v-2.2H787.555Z" fill="#fff"/>
      <path id="Path_853" data-name="Path 853" d="M851.424,28.841H787.152v-3h64.272Zm-63.869-.4h63.471v-2.2H787.555Z" fill="#fff"/>
      <path id="Path_854" data-name="Path 854" d="M851.425,16.457H787.153v-3h64.272Zm-63.87-.4h63.472v-2.2H787.555Z" fill="#fff"/>
      <path id="Path_855" data-name="Path 855" d="M910.618,283.118,900.346,292.7l-2.563-11.488-.992-4.445,12.275-3.106.708,4.327Z" fill="#e9928b"/>
      <path id="Path_856" data-name="Path 856" d="M909.775,277.99a17.073,17.073,0,0,0-5.077.319,63.277,63.277,0,0,0-6.919,2.9l-.992-4.449,12.275-3.106Z" fill="#de6667"/>
      <path id="Path_857" data-name="Path 857" d="M907.955,282.067c-5.2-.078-7.063,4.187-8.812,8.15s-3.866,13.207-6.9,14.144-4.662,2.563-4.662,4.431h10.933s6.861-7.546,10.39-10.49,4.387-4.856,4.387-4.856-1.356-7.293-2.677-10.32A3.772,3.772,0,0,0,907.955,282.067Z" fill="#0c1b3c"/>
      <path id="Path_858" data-name="Path 858" d="M908.817,289.671c-3.792.787-5.187,4.856-7.518,11.619s-6.953,7.5-6.953,7.5H907.26a39.277,39.277,0,0,1,2.257-5.63c1.137-2.332,3.1-4.991,3.59-7.424C914.27,290.021,909.74,289.478,908.817,289.671Z" fill="#408c91"/>
      <path id="Path_859" data-name="Path 859" d="M909.739,274.688a47.475,47.475,0,0,0-13.8,3.6s-2.759.9-6.752-7.507-18.035-34.744-18.035-34.744l16.146.512,12.2.389s6.59,16.681,9.787,23.772A19.452,19.452,0,0,1,909.739,274.688Z" fill="#376f92"/>
      <path id="Path_860" data-name="Path 860" d="M895.946,263.331c-4.893,5.862-3.253,12.682,0,14.953,0,0-2.759.9-6.752-7.507s-18.034-34.744-18.034-34.744l16.145.512,10.539,4.681s-10.381,1.33-12.712,6.794S900.836,257.473,895.946,263.331Z" fill="#1b5175"/>
      <g id="Group_44" data-name="Group 44" opacity="0.4">
        <path id="Path_861" data-name="Path 861" d="M852.089,245.412l-1.8-1a3.536,3.536,0,0,1-1.824-3.145c.005-.149.009-.293.009-.442s0-.293-.009-.442a3.537,3.537,0,0,1,1.824-3.145l1.8-1a3.562,3.562,0,0,0,1.71-4.024c-.009-.018-.009-.035-.018-.053a3.554,3.554,0,0,0-3.485-2.629l-2.064.035a3.582,3.582,0,0,1-3.175-1.851c-.131-.227-.263-.454-.389-.678a3.566,3.566,0,0,1-.022-3.683l1.058-1.759a3.551,3.551,0,0,0-.534-4.339l-.043-.044a3.55,3.55,0,0,0-4.338-.534l-1.758,1.059a3.58,3.58,0,0,1-3.683-.022c-.223-.131-.45-.262-.677-.389a3.565,3.565,0,0,1-1.85-3.176l.035-2.065a3.551,3.551,0,0,0-2.628-3.487c-.018-.008-.035-.008-.053-.017a3.558,3.558,0,0,0-4.023,1.71l-1,1.8a3.534,3.534,0,0,1-3.144,1.824c-.149,0-.293-.009-.442-.009s-.293,0-.441.009a3.537,3.537,0,0,1-3.145-1.824l-1-1.8a3.558,3.558,0,0,0-4.023-1.71c-.018.009-.035.009-.053.017a3.555,3.555,0,0,0-2.628,3.487l.035,2.065a3.585,3.585,0,0,1-1.85,3.176l-.678.389a3.569,3.569,0,0,1-3.682.022l-1.758-1.059a3.557,3.557,0,0,0-4.338.534l-.044.044a3.552,3.552,0,0,0-.533,4.339l1.058,1.759a3.58,3.58,0,0,1-.022,3.683c-.131.224-.262.451-.389.678a3.565,3.565,0,0,1-3.175,1.851l-2.064-.035a3.549,3.549,0,0,0-3.485,2.629c-.009.018-.009.035-.018.053a3.561,3.561,0,0,0,1.71,4.024l1.8,1a3.535,3.535,0,0,1,1.823,3.145c0,.149-.008.294-.008.442s0,.293.008.442a3.533,3.533,0,0,1-1.823,3.145l-1.8,1a3.562,3.562,0,0,0-1.71,4.025c.009.017.009.035.018.052a3.553,3.553,0,0,0,3.485,2.63l2.064-.035a3.583,3.583,0,0,1,3.175,1.85c.131.228.262.455.389.678a3.572,3.572,0,0,1,.022,3.684l-1.058,1.758a3.561,3.561,0,0,0,.533,4.34l.044.044a3.551,3.551,0,0,0,4.338.533l1.758-1.058a3.574,3.574,0,0,1,3.682.022c.223.131.451.262.678.389a3.566,3.566,0,0,1,1.85,3.176l-.035,2.065a3.55,3.55,0,0,0,2.628,3.486c.018.009.035.009.053.018a3.56,3.56,0,0,0,4.023-1.711l1-1.8a3.535,3.535,0,0,1,3.145-1.824c.148,0,.293.008.441.008s.293,0,.442-.008a3.532,3.532,0,0,1,3.144,1.824l1,1.8a3.56,3.56,0,0,0,4.023,1.711c.018-.009.035-.009.053-.018a3.555,3.555,0,0,0,2.628-3.486l-.035-2.065a3.582,3.582,0,0,1,1.85-3.176c.227-.131.454-.263.677-.389a3.566,3.566,0,0,1,3.683-.022l1.758,1.058a3.557,3.557,0,0,0,4.338-.533l.043-.044a3.553,3.553,0,0,0,.534-4.34l-1.058-1.758a3.579,3.579,0,0,1,.022-3.684c.131-.223.262-.45.389-.678a3.564,3.564,0,0,1,3.175-1.85l2.064.035a3.549,3.549,0,0,0,3.485-2.63c.009-.017.009-.035.018-.052A3.561,3.561,0,0,0,852.089,245.412Zm-30.533,15.434a20.027,20.027,0,1,1,20.02-20.027A20.022,20.022,0,0,1,821.556,260.846Z" fill="#f4d7c9" opacity="0.4"/>
        <path id="Path_862" data-name="Path 862" d="M830.294,243.348a9.035,9.035,0,1,0-11.1,6.329A9.039,9.039,0,0,0,830.294,243.348Z" fill="#f4d7c9" opacity="0.4"/>
      </g>
      <g id="Group_45" data-name="Group 45" opacity="0.4">
        <path id="Path_863" data-name="Path 863" d="M1022.81,247.462l-1.05-.587a2.089,2.089,0,0,1-1.07-1.837c0-.087.01-.171.01-.258a2.223,2.223,0,0,0-.01-.258,2.069,2.069,0,0,1,1.07-1.837l1.05-.587a2.086,2.086,0,0,0,1-2.349.038.038,0,0,1-.01-.03,2.079,2.079,0,0,0-2.04-1.536l-1.2.018a2.111,2.111,0,0,1-1.86-1.081c-.07-.131-.15-.267-.22-.394a2.08,2.08,0,0,1-.02-2.152l.62-1.028a2.076,2.076,0,0,0-.31-2.533l-.03-.026a2.066,2.066,0,0,0-2.53-.311l-1.03.617a2.085,2.085,0,0,1-2.15-.013c-.13-.075-.26-.153-.39-.228a2.057,2.057,0,0,1-1.08-1.854l.02-1.208a2.079,2.079,0,0,0-1.54-2.034c-.01,0-.02,0-.03-.009a2.075,2.075,0,0,0-2.35,1l-.58,1.049a2.1,2.1,0,0,1-1.84,1.068c-.09,0-.17,0-.26,0s-.17,0-.26,0a2.05,2.05,0,0,1-1.83-1.068l-.59-1.049a2.074,2.074,0,0,0-2.349-1c-.008,0-.022,0-.03.009a2.072,2.072,0,0,0-1.535,2.034l.017,1.208a2.1,2.1,0,0,1-1.08,1.854c-.131.075-.267.153-.394.228a2.087,2.087,0,0,1-2.151.013l-1.028-.617a2.075,2.075,0,0,0-2.532.311l-.026.026a2.072,2.072,0,0,0-.311,2.533l.617,1.028a2.089,2.089,0,0,1-.013,2.152c-.074.132-.153.263-.227.394A2.085,2.085,0,0,1,989.4,238.2l-1.207-.018a2.067,2.067,0,0,0-2.033,1.536c0,.008,0,.021-.009.03a2.074,2.074,0,0,0,1,2.349l1.05.587a2.08,2.08,0,0,1,1.067,1.837c0,.087-.005.171-.005.258s0,.171.005.258a2.062,2.062,0,0,1-1.067,1.837l-1.05.587a2.077,2.077,0,0,0-1,2.349c.005.009.005.022.009.031a2.072,2.072,0,0,0,2.033,1.535l1.207-.018a2.1,2.1,0,0,1,1.855,1.081c.074.131.153.267.227.394a2.089,2.089,0,0,1,.013,2.152l-.617,1.028a2.079,2.079,0,0,0,.311,2.533c.009.009.017.018.026.026a2.069,2.069,0,0,0,2.532.311l1.028-.617a2.087,2.087,0,0,1,2.151.013c.132.075.263.153.394.228a2.082,2.082,0,0,1,1.08,1.855l-.017,1.207a2.067,2.067,0,0,0,1.535,2.034c.008.005.022,0,.03.009a2.074,2.074,0,0,0,2.349-1l.59-1.049a2.068,2.068,0,0,1,1.83-1.068c.09,0,.17.005.26.005s.17,0,.26-.005a2.077,2.077,0,0,1,1.84,1.068l.58,1.049a2.075,2.075,0,0,0,2.35,1c.01-.005.02,0,.03-.009a2.079,2.079,0,0,0,1.54-2.034l-.02-1.207a2.082,2.082,0,0,1,1.08-1.855c.13-.075.26-.153.39-.228a2.085,2.085,0,0,1,2.15-.013l1.03.617a2.071,2.071,0,0,0,2.53-.311l.03-.026a2.076,2.076,0,0,0,.31-2.533l-.62-1.028a2.08,2.08,0,0,1,.02-2.152c.07-.131.15-.263.22-.394a2.09,2.09,0,0,1,1.86-1.081l1.2.018a2.078,2.078,0,0,0,2.04-1.535.039.039,0,0,1,.01-.031A2.084,2.084,0,0,0,1022.81,247.462Zm-17.83,9.007a11.689,11.689,0,1,1,11.69-11.689A11.684,11.684,0,0,1,1004.98,256.469Z" fill="#f4d7c9" opacity="0.4"/>
      </g>
      <path id="Path_864" data-name="Path 864" d="M916.517,188.131v-6.278l-5.65-1.461-4.329-5.162,1.128-3.088-34.486-39.42H729.121a2.559,2.559,0,0,0-2.559,2.559v4.458l.035.026a3.961,3.961,0,0,0,.914,2.073L765.728,187.4a14.624,14.624,0,0,0,11.195,5.223h135.6a4.038,4.038,0,0,0,4-4.5Z" fill="#e3e7f3"/>
      <path id="Path_865" data-name="Path 865" d="M912.525,186.355h-135.6a14.611,14.611,0,0,1-11.2-5.223L727.507,135.57a4.016,4.016,0,0,1,3.075-6.6h135.6a14.606,14.606,0,0,1,11.2,5.223L915.6,179.758A4.017,4.017,0,0,1,912.525,186.355Z" fill="#fff"/>
      <path id="Path_866" data-name="Path 866" d="M895.632,176.333a.9.9,0,0,1-.687-.32L868.593,144.7a.9.9,0,1,1,1.373-1.159l26.352,31.318A.9.9,0,0,1,895.632,176.333Z" fill="#b2e5e0"/>
      <path id="Path_867" data-name="Path 867" d="M792.57,163.275H762.081a2.425,2.425,0,0,1-1.859-.871l-14.951-17.945a.929.929,0,0,1,.713-1.526h30.489a2.424,2.424,0,0,1,1.859.87l14.951,17.945A.93.93,0,0,1,792.57,163.275Z" fill="#e3e7f3"/>
      <path id="Path_868" data-name="Path 868" d="M777.768,176.639h-4.5a2.408,2.408,0,0,1-1.854-.866l-5.528-6.6a.929.929,0,0,1,.713-1.526h4.5a2.4,2.4,0,0,1,1.854.866l5.527,6.6A.929.929,0,0,1,777.768,176.639Z" fill="#2e4fbe"/>
      <path id="Path_869" data-name="Path 869" d="M790.765,176.639h-4.5a2.408,2.408,0,0,1-1.854-.866l-5.528-6.6a.929.929,0,0,1,.713-1.526h4.5a2.4,2.4,0,0,1,1.854.866l5.528,6.6A.93.93,0,0,1,790.765,176.639Z" fill="#2e4fbe"/>
      <path id="Path_870" data-name="Path 870" d="M803.761,176.639h-4.495a2.408,2.408,0,0,1-1.854-.866l-5.528-6.6a.928.928,0,0,1,.713-1.526h4.495a2.4,2.4,0,0,1,1.854.866l5.528,6.6A.929.929,0,0,1,803.761,176.639Z" fill="#2e4fbe"/>
      <path id="Path_871" data-name="Path 871" d="M827.919,151.477H793.476a2.416,2.416,0,0,1-1.85-.862l-5.156-6.146a.932.932,0,0,1,.713-1.531h34.443a2.416,2.416,0,0,1,1.85.861l5.156,6.147A.932.932,0,0,1,827.919,151.477Z" fill="#e3e7f3"/>
      <path id="Path_872" data-name="Path 872" d="M838.462,164.044H804.019a2.415,2.415,0,0,1-1.85-.862l-5.156-6.146a.933.933,0,0,1,.713-1.531h34.443a2.417,2.417,0,0,1,1.85.862l5.156,6.146A.933.933,0,0,1,838.462,164.044Z" fill="#e3e7f3"/>
      <path id="Path_873" data-name="Path 873" d="M849.027,176.639H814.584a2.415,2.415,0,0,1-1.849-.862l-5.156-6.146a.932.932,0,0,1,.713-1.531h34.442a2.418,2.418,0,0,1,1.85.861l5.156,6.147A.932.932,0,0,1,849.027,176.639Z" fill="#e3e7f3"/>
      <path id="Path_874" data-name="Path 874" d="M864.207,176.333a.9.9,0,0,1-.687-.32L837.168,144.7a.9.9,0,1,1,1.373-1.159l26.352,31.318A.9.9,0,0,1,864.207,176.333Z" fill="#b2e5e0"/>
      <path id="Path_875" data-name="Path 875" d="M844.733,149.968h-3.752a2.8,2.8,0,0,1-1.8-.98l-1.364-1.623c-.455-.543-.385-.98.157-.98h3.752a2.791,2.791,0,0,1,1.8.98l1.364,1.623C845.345,149.53,845.275,149.968,844.733,149.968Z" fill="#b2e5e0"/>
      <path id="Path_876" data-name="Path 876" d="M844.991,149.1h-3.752a2.793,2.793,0,0,1-1.8-.98l-1.364-1.623c-.455-.543-.385-.98.157-.98h3.752a2.791,2.791,0,0,1,1.8.98l1.364,1.623C845.6,148.659,845.529,149.1,844.991,149.1Z" fill="#dceceb"/>
      <path id="Path_877" data-name="Path 877" d="M882.884,158.1h-3.752a2.788,2.788,0,0,1-1.8-.98l-1.364-1.622c-.455-.543-.385-.98.157-.98h3.752a2.791,2.791,0,0,1,1.8.98l1.364,1.622C883.492,157.662,883.422,158.1,882.884,158.1Z" fill="#b2e5e0"/>
      <path id="Path_878" data-name="Path 878" d="M883.137,157.233h-3.752a2.791,2.791,0,0,1-1.8-.98l-1.364-1.623c-.455-.542-.385-.98.157-.98h3.753a2.793,2.793,0,0,1,1.8.98l1.365,1.623C883.75,156.791,883.68,157.233,883.137,157.233Z" fill="#dceceb"/>
      <path id="Path_879" data-name="Path 879" d="M880.059,176.333a.9.9,0,0,1-.687-.32L853.02,144.7a.9.9,0,1,1,1.373-1.159l26.352,31.318A.9.9,0,0,1,880.059,176.333Z" fill="#b2e5e0"/>
      <path id="Path_880" data-name="Path 880" d="M876.307,168.714h-3.752a2.793,2.793,0,0,1-1.8-.98l-1.365-1.623c-.454-.543-.384-.98.158-.98H873.3a2.79,2.79,0,0,1,1.8.98l1.364,1.623C876.919,168.272,876.849,168.714,876.307,168.714Z" fill="#b2e5e0"/>
      <path id="Path_881" data-name="Path 881" d="M876.565,167.843h-3.753a2.791,2.791,0,0,1-1.8-.98l-1.365-1.623c-.455-.543-.385-.98.158-.98h3.752a2.79,2.79,0,0,1,1.8.98l1.364,1.623C877.177,167.4,877.107,167.843,876.565,167.843Z" fill="#dceceb"/>
      <path id="Path_882" data-name="Path 882" d="M920.908,216.073s-2.173,6.737-9.922,12.651a41.108,41.108,0,0,1-15.543,7.166c-20.676,5-37.232,3.193-38.43,3.39-1.067.175,9.244,16.48,15.047,26.266.722,1.216,1.374,2.327,1.925,3.3.07.118.131.236.2.35,4.728,8.5,2.2,10.635,2.2,10.635-4.793.6-11.383,5.993-11.383,5.993-9.984,2.6-15.975-12.984-21.568-19.576s-19.972-26.17-13.579-36.756,63.209-24.175,63.209-24.175l5.663,2.188,10.684,4.125Z" fill="#376f92"/>
      <path id="Path_883" data-name="Path 883" d="M873.989,268.852c.07.118.131.236.2.35A1.281,1.281,0,0,1,873.989,268.852Z" fill="#1b5175"/>
      <path id="Path_884" data-name="Path 884" d="M914.917,223.247c-.03.074-1.526,2.192-3.931,5.481a41.11,41.11,0,0,1-15.542,7.166c-20.676,5-37.233,3.194-38.431,3.39-1.067.175,9.245,16.48,15.048,26.266-3.481-4.191-8.983-4.742-13.1-13.124-4.994-10.171-16.775.385-18.926-8.006s6.148-7.791,18.327-13.185,14.178-3.2,25.224-5.4,9.315-15.758,9.315-15.758l5.816-2.568,8.1-1.045s1.15,2.283,2.589,5.171C911.817,216.475,915.022,222.993,914.917,223.247Z" fill="#1b5175"/>
      <path id="Path_885" data-name="Path 885" d="M879.246,283.9s5.75,4.8,5.881,8.452-12.1,16.011-12.1,16.011H857.5s-1.661-2.546,2.633-4.374,4.723-1.934,6.337-3.653,3.008-6.339,5.584-11.173A9.827,9.827,0,0,1,879.246,283.9Z" fill="#0c1b3c"/>
      <path id="Path_886" data-name="Path 886" d="M884.94,95.668s-3.635-2.235-4.846-4.751-4.286-8.014-4.469-9.318,2.422.092,3.914,2.7a63.849,63.849,0,0,0-2.887-6.431c-1.862-3.635-4.845-5.871-4.1-7.643s6.149,4.939,6.8,6.059,1.955-.092,3.634.744,1.675-.092,3.354.932,3.118,3.106,4.868,12.271Z" fill="#e9928b"/>
      <path id="Path_887" data-name="Path 887" d="M842.118,165.457s-1.968-.678-5.3-3.88-5.3-4.37-6.4-4.864a10.449,10.449,0,0,0-4.741-.923c-1.845.122-2.834-.74-2.4-1.357s2.156-1.045,2.156-1.045-3.385.306-2.523-1.234,5.724-.923,5.724-.923a3.205,3.205,0,0,1,2.218-1.168c1.294,0,1.167-1.045,3.756-.739s3.94,1.846,6.647,2.463,4.946,6.251,4.946,6.251Z" fill="#e9928b"/>
      <path id="Path_888" data-name="Path 888" d="M846.19,157.412s-4.352,3.845-5.681,7.909l-.468,1.2,2.528,3.531,5.86-11.186Z" fill="#93405e"/>
      <path id="Path_889" data-name="Path 889" d="M884.476,99.146l-2.1-3.294s4.093-4.795,9.385-6.194l1.3,2.3Z" fill="#93405e"/>
      <path id="Path_890" data-name="Path 890" d="M947.208,141.682l-15.922,8.451-2.366,1.256s-.844-.424-2.226-1.146c-4.513-2.371-14.764-7.953-19.954-12.437-2.414-2.083-6.416-7.079-10.575-12.656-7.534-10.1-15.585-22.1-15.585-22.1,5.79-8.99,12.485-11.987,12.485-11.987s18.035,25.373,20.829,27.771c1.636,1.4,12.743,8.977,21.691,15.027C941.943,138.156,947.208,141.682,947.208,141.682Z" fill="#67a4c3"/>
      <path id="Path_891" data-name="Path 891" d="M947.208,141.681l-15.922,8.452c-1.413.031-2.974.07-4.588.109-4.513-2.371-14.763-7.953-19.954-12.437-2.414-2.082-6.416-7.078-10.575-12.656,3.307,1.724,6.569,3.238,8.467,4.874,4.128,3.574,2.93-.8,21.306,1.728a61.34,61.34,0,0,1,9.651,2.1C941.943,138.155,947.208,141.681,947.208,141.681Z" fill="#4f91b3"/>
      <path id="Path_892" data-name="Path 892" d="M934.5,139.134s-13.78,8.457-13.81,3.133a14.538,14.538,0,0,0-.757-4.585,11.959,11.959,0,0,0-2.077-3.876l-.009.013c-4.92,5.245-7.115,3.583-7.714,2.586s-4.662-9.388-4.063-12.188.468-4.462-.4-6.195.4-5.923.4-5.923l11.72-2.467s10.85,11.055,11.782,14.782S934.5,139.134,934.5,139.134Z" fill="#e9928b"/>
      <path id="Path_893" data-name="Path 893" d="M950.077,175.362c-3.594,10.788-23.147,46.813-33.38,47.841-4.172.42-9.555-2.305-14.462-5.683a102.626,102.626,0,0,1-13.263-11.177c8.987-6.374,7.788-26.471,7.788-26.471a.014.014,0,0,1,0,.009c-.2.162-12.844,10.67-21.323,11.658-8.55,1-36.188-18.181-36.188-18.181s6.192-15.582,9.188-14.983,22.766,13.387,26.151,13.583,22.574-16.982,27.35-21.777,23.58-12.187,36.76-12.384c0,0,8.589,1.4,11.584,7.791S953.672,164.574,950.077,175.362Z" fill="#67a4c3"/>
      <path id="Path_894" data-name="Path 894" d="M911.79,100.239c-6.258.753-12.2,5.39-10.281,10.04s5.668,5.206,8.069,5.236,3.2,1.457,4.036,2.756,1.211.495,2.265-1.609,3.468-.6,3.529,2.239-.433,9.721,4.645,9.843,6.07-1.981,6.258-1.981,4.333-8.487,4.027-15.924c0,0-1.192-4.584-4.027-7.187s-4.649-1.431-7.312-3.225-6.258-2.664-7.929-1.61S913.338,100.051,911.79,100.239Z" fill="#0c1b3c"/>
      <path id="Path_895" data-name="Path 895" d="M916.256,243.094h-5.349v60.79h5.349Z" fill="#f0d1aa"/>
      <path id="Path_896" data-name="Path 896" d="M916.255,303.883h-2.676v-60.79l2.676-.166Z" fill="#edbf84"/>
      <path id="Path_897" data-name="Path 897" d="M934.749,308.38h-42.34a4.493,4.493,0,0,1,4.495-4.492h33.35A4.487,4.487,0,0,1,934.749,308.38Z" fill="#edbf84"/>
      <path id="Path_898" data-name="Path 898" d="M921.241,308.38H892.413a4.493,4.493,0,0,1,4.5-4.492h16.674Z" fill="#f0d1aa"/>
      <path id="Path_899" data-name="Path 899" d="M966.122,179.311q-.571.262-1.115.565c-.118.065-.236.131-.35.2s-.232.131-.346.2-.227.135-.341.21-.21.131-.31.2c-.123.078-.241.157-.354.24s-.219.149-.328.228-.219.157-.324.236c-.359.267-.713.547-1.058.836-.127.105-.25.21-.372.319q-.656.578-1.268,1.207l-.013.013q-.25.257-.5.525c-.022.027-.048.057-.074.084-.162.175-.319.354-.477.538-.175.2-.341.4-.507.608-.009.013-.022.026-.031.039-.157.193-.31.389-.459.586s-.319.416-.472.63c-.009.013-.018.022-.026.035-.154.21-.3.42-.447.635s-.306.446-.454.673a0,0,0,0,1-.005,0c-.131.2-.258.4-.384.608l-.1.17c-.031.048-.066.1-.1.153-.236.385-.463.775-.686,1.173-.271.481-.538.975-.787,1.474-.132.249-.258.5-.381.757s-.249.507-.367.765c-.241.517-.477,1.037-.7,1.567-.114.262-.228.529-.337.8s-.223.538-.328.805c-.1.232-.184.463-.276.7-.118.31-.236.621-.354.936-.1.275-.2.547-.3.827-.014.03-.022.065-.035.1-.088.245-.175.49-.259.735-.2.568-.393,1.142-.581,1.719-.088.267-.175.538-.258.8-.088.284-.175.564-.267.849-.166.538-.328,1.071-.485,1.61-.009.03-.018.065-.027.1-.087.284-.166.573-.249.857a.018.018,0,0,0,0,.013c-.079.28-.162.565-.241.845-.1.363-.2.726-.3,1.089-.057.206-.114.416-.167.621-.03.114-.061.232-.1.346-.2.739-.393,1.478-.586,2.213q-.282,1.077-.555,2.135c-.079.3-.158.6-.232.9-.241.941-.481,1.873-.717,2.787-.074.267-.14.538-.21.805-.127.485-.258.967-.385,1.439-.079.293-.157.591-.24.879-.289,1.046-.578,2.061-.879,3.045-.066.223-.136.446-.2.665-.048.158-.1.311-.148.468-.04.131-.083.267-.127.394-.14.429-.28.853-.429,1.264q-.23.669-.472,1.3a.457.457,0,0,0-.022.065c-.074.193-.149.377-.223.565-.065.162-.131.323-.2.481-.017.039-.035.087-.052.127-.074.184-.158.363-.236.547a.221.221,0,0,1-.022.043c-.088.193-.175.385-.263.574s-.174.371-.266.551c-.066.135-.132.267-.2.4-.031.061-.062.122-.1.179-.087.158-.17.311-.258.464-.039.074-.083.144-.122.214-.053.092-.109.184-.166.276-7.509,12.223-28.858,11.781-28.858,11.781H880.89c-7.36,0-7.509-7.512.883-8.1s24.735-10.311,32.095-31.664c3.568-10.35,7.722-16.514,11.059-20.119a15,15,0,0,1,11.02-4.772h29.978A.458.458,0,0,1,966.122,179.311Z" fill="#f4c8af"/>
      <path id="Path_900" data-name="Path 900" d="M965.007,179.875c-.118.066-.236.131-.35.2s-.232.131-.345.2-.228.136-.342.21l-.31.2c-.123.079-.241.157-.354.241s-.223.148-.328.227-.219.158-.324.236c-.358.267-.713.547-1.058.836-.127.1-.249.21-.372.319q-.656.577-1.268,1.208l-.013.013c-.166.17-.333.345-.5.525-.022.026-.048.057-.074.083-.162.175-.319.354-.477.538-.175.2-.341.4-.507.608-.009.013-.022.026-.031.039-.153.193-.31.39-.459.587s-.319.419-.472.629c-.009.014-.018.022-.026.035-.149.21-.3.42-.446.635s-.3.446-.455.673a0,0,0,0,1-.005.005c-.126.2-.258.4-.384.608l-.1.171c-.031.048-.062.1-.092.153h-.005c-.236.385-.463.774-.686,1.172-.271.481-.538.976-.787,1.474-.132.25-.258.5-.381.757s-.249.508-.367.766c-.241.516-.477,1.036-.7,1.566-.114.262-.228.529-.337.8s-.223.538-.328.8c-.1.232-.184.464-.275.7-.118.31-.237.621-.355.936-.1.276-.2.547-.3.827-.014.03-.022.066-.035.1-.088.245-.175.49-.258.735-.2.569-.394,1.142-.582,1.719-.087.267-.171.538-.258.805-.087.285-.175.565-.267.849-.166.538-.328,1.076-.485,1.61-.009.03-.018.065-.026.1-.084.284-.167.573-.25.857a.019.019,0,0,0,0,.014c-.079.28-.158.56-.241.844-.1.363-.2.726-.3,1.089-.057.21-.114.416-.166.621-.031.114-.062.232-.1.346-.2.739-.393,1.479-.586,2.214-.188.717-.371,1.43-.555,2.134-.079.3-.153.6-.232.9-.24.94-.481,1.872-.717,2.786-.07.271-.14.538-.21.8-.127.486-.258.967-.385,1.439-.079.293-.157.591-.24.88-.289,1.045-.578,2.06-.879,3.044-.066.224-.136.447-.2.665-.049.158-.1.311-.149.468-.04.132-.083.267-.127.394-.14.429-.28.853-.429,1.264-.153.447-.31.88-.472,1.3a.429.429,0,0,0-.022.066c-.074.192-.148.376-.223.564-.065.162-.131.324-.2.481-.017.04-.035.088-.052.127-.074.184-.157.363-.236.547a.228.228,0,0,1-.022.044c-.088.192-.175.385-.262.573s-.175.372-.267.551c-.066.136-.131.267-.2.4-.031.061-.062.123-.1.179-.087.158-.17.311-.258.464s-.192.328-.288.49c-7.509,12.223-28.858,11.781-28.858,11.781H882.875c-2.094-1.636-1.075-4.134,4.5-4.528,8.392-.59,26.523-12.441,33.887-33.8,3.569-10.351,7.723-16.515,11.06-20.119a14.988,14.988,0,0,1,11.02-4.773Z" fill="#f7dfd3"/>
      <path id="Path_901" data-name="Path 901" d="M955.9,189.054c-.236.385-.464.774-.687,1.172-.271.481-.538.976-.787,1.474-.131.25-.258.5-.381.757s-.249.508-.367.766c-.24.516-.477,1.037-.7,1.566-.114.262-.227.529-.337.8s-.223.538-.328.8c-.1.232-.183.464-.275.7-.118.311-.236.621-.354.936-.1.276-.2.547-.3.827-.013.031-.022.066-.035.1-.088.245-.175.49-.258.735-.2.569-.394,1.142-.582,1.719-.087.267-.17.538-.258.8-.087.285-.175.565-.266.849-.167.538-.328,1.076-.486,1.61-.009.03-.017.065-.026.1-.083.284-.166.573-.249.858a.014.014,0,0,0,0,.013c-.078.28-.157.56-.24.844-.1.363-.2.726-.3,1.089-.057.21-.114.416-.166.621-.031.114-.061.232-.1.346-.2.739-.394,1.479-.586,2.214-.188.717-.372,1.43-.556,2.134-.079.3-.153.6-.232.9-.24.94-.481,1.872-.717,2.786-.07.272-.14.538-.21.8-.127.486-.258.967-.385,1.439-.078.294-.157.591-.24.88-.289,1.045-.577,2.06-.879,3.045-.066.223-.136.446-.2.664-.048.158-.1.311-.149.469-.039.131-.083.266-.127.393-.14.429-.28.853-.428,1.265-.153.446-.311.879-.473,1.3a.418.418,0,0,0-.021.066c-.075.192-.149.376-.223.564-.066.162-.132.324-.2.481-.018.04-.035.088-.053.127-.074.184-.157.363-.236.547a.181.181,0,0,1-.022.044c-.087.192-.175.385-.262.573s-.175.372-.267.551c-.065.136-.131.267-.2.4-.031.061-.061.123-.1.18-.088.157-.171.31-.258.463-.04.075-.083.145-.123.215-.052.092-.109.183-.166.275-7.509,12.223-28.858,11.781-28.858,11.781H901.924c1.085-.065,21.136-1.028,28.286-31.012C935.046,191.836,948.166,190.633,955.9,189.054Z" fill="#f4c8af"/>
      <path id="Path_902" data-name="Path 902" d="M739.791,242.8V222.27a11.586,11.586,0,0,0-11.584-11.588H713.561v97.642h49.394V265.973a11.587,11.587,0,0,0-11.584-11.589A11.578,11.578,0,0,1,739.791,242.8Z" fill="#f5f8ff"/>
      <path id="Path_903" data-name="Path 903" d="M736.669,283.529c-4.47-8.531-9.857-14.616-18.621-21.5s-20.239-6.916-24.922-9.134-4.807,3.928-3.35,9.7-2.965,32.364,23.658,40.815S739.97,289.824,736.669,283.529Z" fill="#f2d6c8"/>
      <path id="Path_904" data-name="Path 904" d="M719.854,289.264a.4.4,0,0,1-.394-.346c-1.276-9.414,3.39-18.715,3.438-18.807a.4.4,0,0,1,.713.363c-.049.092-4.6,9.178-3.359,18.335a.4.4,0,0,1-.341.45A.236.236,0,0,1,719.854,289.264Z" fill="#f5b89b"/>
      <path id="Path_905" data-name="Path 905" d="M719.924,290.318a.385.385,0,0,1-.183-.044c-7.933-4.169-21.721-2.677-21.861-2.66a.4.4,0,0,1-.088-.8c.577-.065,14.173-1.535,22.321,2.747a.4.4,0,0,1,.166.539A.406.406,0,0,1,719.924,290.318Z" fill="#f5b89b"/>
      <path id="Path_906" data-name="Path 906" d="M722.413,297.974a.4.4,0,0,1-.39-.306c-5.715-23.619-28.372-40.308-28.6-40.474a.4.4,0,0,1,.473-.648c.231.167,23.12,17.031,28.906,40.934a.4.4,0,0,1-.293.481A.357.357,0,0,1,722.413,297.974Z" fill="#f5b89b"/>
      <path id="Path_907" data-name="Path 907" d="M711.712,275.82a.408.408,0,0,1-.249-.087c-5.174-4.143-17.677-3.062-17.8-3.049a.4.4,0,0,1-.07-.8c.525-.048,12.944-1.119,18.371,3.22a.4.4,0,0,1-.253.713Z" fill="#f5b89b"/>
      <path id="Path_908" data-name="Path 908" d="M707.562,270.557a.4.4,0,0,1-.367-.245c-1.623-3.858-.766-10.381-.731-10.656a.4.4,0,0,1,.451-.342.4.4,0,0,1,.341.451c-.009.066-.862,6.584.673,10.237a.4.4,0,0,1-.214.525A.468.468,0,0,1,707.562,270.557Z" fill="#f5b89b"/>
      <path id="Path_909" data-name="Path 909" d="M667.054,308.207c-.761-7.98,6.463-19.992,29.654-12.179,0,0,5.86-18.313,21.97-17.705s21.236,15.684,21.236,15.684,21.643-2.616,24.734,15.7C764.648,309.7,668.151,319.734,667.054,308.207Z" fill="#e3e7f3"/>
      <path id="Path_910" data-name="Path 910" d="M715.154,309.58l-.788-.127c2.091-12.971-5.947-22.28-6.03-22.372l.6-.529C709.018,286.652,717.3,296.242,715.154,309.58Z" fill="#6eab9c"/>
      <path id="Path_911" data-name="Path 911" d="M715.42,301.635l-.612-.516c.074-.087,7.421-8.876,8.672-14.392l.778.175C722.964,292.61,715.726,301.272,715.42,301.635Z" fill="#6eab9c"/>
      <path id="Path_912" data-name="Path 912" d="M715.079,306.25c-5.737-.31-10.823-6.229-11.033-6.483l.608-.516c.048.061,5.077,5.91,10.469,6.2Z" fill="#6eab9c"/>
      <path id="Path_913" data-name="Path 913" d="M733.183,310.005l-.52-.6c.416-.358,10.22-8.784,15.319-8.928l.022.8C743.185,301.4,733.28,309.917,733.183,310.005Z" fill="#6eab9c"/>
      <path id="Path_914" data-name="Path 914" d="M752.36,308.355a88.476,88.476,0,0,1-14.217-2.113l.2-.774a88.22,88.22,0,0,0,14.064,2.091Z" fill="#6eab9c"/>
      <path id="Path_915" data-name="Path 915" d="M694.119,309.524c-5.165-4.3-16.054-7.726-16.163-7.761l.236-.761c.455.14,11.151,3.513,16.438,7.909Z" fill="#6eab9c"/>
      <path id="Path_916" data-name="Path 916" d="M690.1,306.2l-.8-.022a16.731,16.731,0,0,0-1.788-7.818l.7-.393A17.087,17.087,0,0,1,690.1,306.2Z" fill="#6eab9c"/>
      <path id="Path_917" data-name="Path 917" d="M876.565,308.364h-7.587s6.118-3.067,8.12-9.353c1.444-4.532,3.8-8.881,6.739-7.8s.516,6.067-1.04,8.88A50.41,50.41,0,0,1,876.565,308.364Z" fill="#408c91"/>
      <path id="Path_918" data-name="Path 918" d="M729.23,210.683h-1.2V162.154a7.487,7.487,0,0,1,7.478-7.48h4.946v1.2H735.51a6.288,6.288,0,0,0-6.28,6.282Z" fill="#2e4fbe"/>
      <path id="Path_919" data-name="Path 919" d="M734.067,211.185h-1.2V162.657a3.489,3.489,0,0,1,3.485-3.486h8.7v1.2h-8.7a2.289,2.289,0,0,0-2.287,2.287Z" fill="#2e4fbe"/>
      <path id="Path_920" data-name="Path 920" d="M901.934,216.071a4.955,4.955,0,0,1,.3,1.448,102.625,102.625,0,0,1-13.263-11.177c8.986-6.374,7.788-26.471,7.788-26.471s10.141-8.859,11.541-6.715-3.6,14.427,0,19.471S898.969,207.9,901.934,216.071Z" fill="#4f91b3"/>
      <path id="Path_921" data-name="Path 921" d="M919.933,137.682a11.944,11.944,0,0,0-2.077-3.876,10.647,10.647,0,0,0,2.082-5.057S922.36,134.344,919.933,137.682Z" fill="#de6667"/>
      <path id="Path_922" data-name="Path 922" d="M819.211,74.558a10.121,10.121,0,1,0-14.274-1.02A10.125,10.125,0,0,0,819.211,74.558Z" fill="#e3e7f3"/>
      <path id="Path_923" data-name="Path 923" d="M877.611,57.035H832.668v2.9h44.943Z" fill="#e3e7f3"/>
      <path id="Path_924" data-name="Path 924" d="M877.61,65.618H832.667v2.9H877.61Z" fill="#e3e7f3"/>
      <path id="Path_925" data-name="Path 925" d="M857.537,74.122h-24.87v2.9h24.87Z" fill="#e3e7f3"/>
      <path id="Path_926" data-name="Path 926" d="M733.905,238.482a1.9,1.9,0,1,1-1.9-1.9A1.9,1.9,0,0,1,733.905,238.482Z" fill="#e3e7f3"/>
      <path id="Path_927" data-name="Path 927" d="M732.007,231.435a1.9,1.9,0,1,0-1.9-1.9A1.9,1.9,0,0,0,732.007,231.435Z" fill="#e3e7f3"/>
      <path id="Path_928" data-name="Path 928" d="M732.007,222.485a1.9,1.9,0,1,0-1.9-1.9A1.9,1.9,0,0,0,732.007,222.485Z" fill="#e3e7f3"/>
      <path id="Path_929" data-name="Path 929" d="M919.938,141.335a4.441,4.441,0,0,1,1.749-2.673c1.473-1.02,10.924-5.171,13.486-.652Z" fill="#93405e"/>
    </g>
  </g>
</svg>
